<svg xmlns="http://www.w3.org/2000/svg" viewBox="0 0 420.5 324.65"><defs><style>.cls-1{fill:#796a9f;}.cls-10,.cls-2{fill:#fff;}.cls-3{fill:#b7b7b7;}.cls-4{opacity:0.6;}.cls-5{fill:#d63c3c;}.cls-6{fill:#5a9b38;}.cls-7{fill:#ffe027;}.cls-10,.cls-8{opacity:0.4;}.cls-18,.cls-9{fill:none;}.cls-9{stroke:#d3d3d3;}.cls-10,.cls-18,.cls-9{stroke-miterlimit:10;}.cls-10{stroke:#42e574;stroke-width:5px;}.cls-11{fill:#503c8a;}.cls-12{fill:#3713c1;}.cls-13{fill:#d09e00;}.cls-14{fill:#d7b105;}.cls-15{fill:#00b95e;}.cls-16{fill:#17a0ff;}.cls-17{fill:#e7c300;}.cls-18{stroke:#efca6c;stroke-width:3px;}.cls-19{fill:#e1eef2;}</style></defs><title>Ativo 3</title><g id="Camada_2" data-name="Camada 2"><g id="Camada_1-2" data-name="Camada 1"><path class="cls-1" d="M259,282.65c-76,26-182-38-209-131C16.47,36.16,109.26-5.89,191,.65c75,6,96,63,162,58s66,91,50,108-36,39-85,33S357.19,249.06,259,282.65Z"/><path class="cls-2" d="M79,232.15a1.5,1.5,0,0,1-1.5-1.5V55.15h284v175.5a1.5,1.5,0,0,1-1.5,1.5Z"/><path class="cls-3" d="M361,55.65v175a1,1,0,0,1-1,1H79a1,1,0,0,1-1-1v-175H361m1-1H77v176a2,2,0,0,0,2,2H360a2,2,0,0,0,2-2v-176Z"/><path class="cls-3" d="M77.5,54.15v-2.5a4.51,4.51,0,0,1,4.5-4.5H357a4.51,4.51,0,0,1,4.5,4.5v2.5Z"/><path class="cls-3" d="M357,47.65a4,4,0,0,1,4,4v2H78v-2a4,4,0,0,1,4-4H357m0-1H82a5,5,0,0,0-5,5v3H362v-3a5,5,0,0,0-5-5Z"/><g class="cls-4"><circle class="cls-5" cx="84.5" cy="51.15" r="2.5"/><circle class="cls-6" cx="91.5" cy="51.15" r="2.5"/><circle class="cls-7" cx="98.5" cy="51.15" r="2.5"/></g><g class="cls-8"><line class="cls-9" x1="220.5" y1="69.65" x2="220.5" y2="218.15"/><line class="cls-9" x1="332" y1="143.15" x2="108" y2="143.15"/></g><polyline class="cls-10" points="130.5 125.15 145.5 96.15 157.5 116.15 171.5 79.15 188.5 125.15 199.5 76.15"/><g class="cls-8"><path class="cls-11" d="M310,106.15c0,.17,0,.33,0,.5a30.49,30.49,0,0,1-30,30h-.5a30.5,30.5,0,0,1-30.49-30h31v-31A30.5,30.5,0,0,1,310,106.15Z"/><path class="cls-12" d="M280,75.66v31H249c0-.17,0-.33,0-.5a30.51,30.51,0,0,1,30.5-30.5Z"/></g><g class="cls-8"><rect class="cls-13" x="128" y="157.65" width="17" height="54"/><rect class="cls-14" x="128" y="178.65" width="17" height="33"/><rect class="cls-13" x="151" y="175.65" width="17" height="36"/><rect class="cls-14" x="151" y="199.65" width="17" height="12"/><rect class="cls-13" x="174" y="191.65" width="17" height="20"/><rect class="cls-14" x="174" y="197.65" width="17" height="14"/></g><g class="cls-8"><rect class="cls-15" x="242" y="162.65" width="47.05" height="43"/><rect class="cls-16" x="289.05" y="162.65" width="14.48" height="16.89"/><rect class="cls-12" x="289.05" y="179.55" width="28.95" height="26.11"/><rect class="cls-17" x="303.52" y="162.65" width="14.48" height="16.89"/></g><line class="cls-18" x1="34.5" y1="162.15" x2="34.5" y2="179.15"/><line class="cls-18" x1="26" y1="170.15" x2="42.5" y2="170.15"/><line class="cls-18" x1="8.5" y1="61.15" x2="8.5" y2="78.15"/><line class="cls-18" y1="69.15" x2="16.5" y2="69.15"/><line class="cls-18" x1="199.5" y1="7.15" x2="199.5" y2="24.15"/><line class="cls-18" x1="191" y1="15.15" x2="207.5" y2="15.15"/><line class="cls-18" x1="303.5" y1="2.15" x2="303.5" y2="19.15"/><line class="cls-18" x1="295" y1="10.15" x2="311.5" y2="10.15"/><line class="cls-18" x1="412.5" y1="123.15" x2="412.5" y2="140.15"/><line class="cls-18" x1="404" y1="131.15" x2="420.5" y2="131.15"/><line class="cls-18" x1="375.5" y1="197.15" x2="375.5" y2="214.15"/><line class="cls-18" x1="367" y1="205.15" x2="383.5" y2="205.15"/><line class="cls-18" x1="281.5" y1="260.15" x2="281.5" y2="277.15"/><line class="cls-18" x1="273" y1="268.15" x2="289.5" y2="268.15"/><line class="cls-18" x1="128.5" y1="246.15" x2="128.5" y2="263.15"/><line class="cls-18" x1="120" y1="254.15" x2="136.5" y2="254.15"/><circle class="cls-14" cx="60" cy="241.65" r="5"/><circle class="cls-14" cx="43" cy="106.65" r="5"/><circle class="cls-14" cx="85" cy="18.65" r="5"/><circle class="cls-14" cx="265" cy="28.65" r="5"/><circle class="cls-14" cx="384" cy="77.65" r="5"/><circle class="cls-14" cx="399" cy="170.65" r="5"/><circle class="cls-14" cx="318" cy="246.65" r="5"/><circle class="cls-14" cx="237" cy="246.65" r="5"/><circle class="cls-14" cx="159" cy="263.65" r="5"/><ellipse class="cls-19" cx="220" cy="320.15" rx="98" ry="4.5"/></g></g></svg>