<?xml version="1.0" encoding="utf-8"?>
<!-- Generator: Adobe Illustrator 22.1.0, SVG Export Plug-In . SVG Version: 6.00 Build 0)  -->
<svg version="1.1" id="Layer_1" xmlns="http://www.w3.org/2000/svg" xmlns:xlink="http://www.w3.org/1999/xlink" x="0px" y="0px"
	 viewBox="0 0 317 184" style="enable-background:new 0 0 317 184;" xml:space="preserve">
<g>
	<g>
		<path style="fill:none;stroke:#EAECED;stroke-miterlimit:10;" d="M247.2,87.5H62c-3.5,0-6.4-2.9-6.4-6.4V36.9
			c0-3.5,2.9-6.4,6.4-6.4h185.1c3.5,0,6.4,2.9,6.4,6.4v44.1C253.6,84.6,250.7,87.5,247.2,87.5z"/>
		<rect x="253.6" y="51.4" style="fill:none;stroke:#EAECED;stroke-miterlimit:10;" width="7.9" height="15.1"/>
		<g>
			<defs>
				<path id="SVGID_1_" d="M247,83.9H62.1c-1.7,0-3.1-1.4-3.1-3.1V37.2c0-1.7,1.4-3.1,3.1-3.1H247c1.7,0,3.1,1.4,3.1,3.1v43.6
					C250.1,82.5,248.7,83.9,247,83.9z"/>
			</defs>
			<clipPath id="SVGID_2_">
				<use xlink:href="#SVGID_1_"  style="overflow:visible;"/>
			</clipPath>
			<rect x="55.6" y="34.1" style="clip-path:url(#SVGID_2_);fill:#FBCC31;" width="198" height="49.7"/>
		</g>
	</g>
	<polygon style="fill:#FBCC31;" points="168.2,56.3 159.4,56.3 160.7,42.5 148.9,61.9 157.6,61.9 156.1,75.5 168.2,56.3 	"/>
	<ellipse style="fill:#EAECED;" cx="158.5" cy="116.2" rx="28.4" ry="5.7"/>
</g>
<text transform="matrix(1 0 0 1 29.0959 152.6026)" style="font-family:'Gotham-Light'; font-size:8px;">Não encontramos nenhum valor com os parâmetros selecionados</text>
</svg>
