<?xml version="1.0" encoding="utf-8"?>
<!-- Generator: Adobe Illustrator 22.1.0, SVG Export Plug-In . SVG Version: 6.00 Build 0)  -->
<svg version="1.1" id="Layer_1" xmlns="http://www.w3.org/2000/svg" xmlns:xlink="http://www.w3.org/1999/xlink" x="0px" y="0px"
	 viewBox="0 0 703.8 202" style="enable-background:new 0 0 703.8 202;" xml:space="preserve">
<g style="opacity:0.6;">
	<g>
		<g>
			<g>
				<path style="fill:#808C93;" d="M511.2,72.6h2.3c1.9,0,3.1,1.3,3.1,2.9v0c0,1.7-1.3,3-3.1,3h-2.3V72.6z M513.5,77.3
					c1.1,0,1.8-0.7,1.8-1.8v0c0-1-0.7-1.8-1.8-1.8h-1v3.6H513.5z"/>
				<path style="fill:#808C93;" d="M519.5,72.5h1.2l2.5,6h-1.4l-0.5-1.3h-2.5l-0.5,1.3h-1.3L519.5,72.5z M520.8,76l-0.8-1.9
					l-0.8,1.9H520.8z"/>
				<path style="fill:#808C93;" d="M524.7,73.8h-1.8v-1.2h4.9v1.2H526v4.7h-1.3V73.8z"/>
				<path style="fill:#808C93;" d="M530.1,72.5h1.2l2.5,6h-1.4l-0.5-1.3h-2.5l-0.5,1.3h-1.3L530.1,72.5z M531.5,76l-0.8-1.9
					l-0.8,1.9H531.5z"/>
				<path style="fill:#808C93;" d="M537.3,72.6h2.3c1.9,0,3.1,1.3,3.1,2.9v0c0,1.7-1.3,3-3.1,3h-2.3V72.6z M539.6,77.3
					c1.1,0,1.8-0.7,1.8-1.8v0c0-1-0.7-1.8-1.8-1.8h-1v3.6H539.6z"/>
				<path style="fill:#808C93;" d="M543.9,72.6h4.5v1.2h-3.2V75h2.8v1.2h-2.8v1.2h3.2v1.2h-4.5V72.6z"/>
				<path style="fill:#808C93;" d="M552.2,72.6h1.3v5.9h-1.3V72.6z"/>
				<path style="fill:#808C93;" d="M555,72.6h1.2l2.8,3.6v-3.6h1.3v5.9h-1.1l-2.9-3.8v3.8H555V72.6z"/>
				<path style="fill:#808C93;" d="M561.7,72.6h1.3v5.9h-1.3V72.6z M562.8,70.6l1.1,0.5l-1.1,1h-1L562.8,70.6z"/>
				<path style="fill:#808C93;" d="M564.2,75.6L564.2,75.6c0-1.7,1.3-3.1,3.1-3.1c1.1,0,1.8,0.4,2.3,0.9l-0.8,1
					c-0.5-0.4-0.9-0.7-1.5-0.7c-1,0-1.7,0.8-1.7,1.8v0c0,1,0.7,1.9,1.7,1.9c0.7,0,1.1-0.3,1.6-0.7l0.8,0.8c-0.6,0.7-1.3,1.1-2.4,1.1
					C565.5,78.6,564.2,77.3,564.2,75.6z"/>
				<path style="fill:#808C93;" d="M570.8,72.6h1.3v5.9h-1.3V72.6z"/>
				<path style="fill:#808C93;" d="M573.3,75.6L573.3,75.6c0-1.7,1.3-3.1,3.2-3.1c1.8,0,3.1,1.4,3.1,3v0c0,1.7-1.3,3.1-3.2,3.1
					C574.6,78.6,573.3,77.3,573.3,75.6z M578.3,75.6L578.3,75.6c0-1-0.7-1.9-1.8-1.9c-1,0-1.8,0.8-1.8,1.8v0c0,1,0.7,1.9,1.8,1.9
					C577.5,77.4,578.3,76.6,578.3,75.6z"/>
			</g>
			<g>
				<path style="fill:#808C93;" d="M602.7,72.5h2.3c1.9,0,3.1,1.3,3.1,2.9v0c0,1.7-1.3,3-3.1,3h-2.3V72.5z M605,77.2
					c1.1,0,1.8-0.7,1.8-1.8v0c0-1-0.7-1.8-1.8-1.8h-1v3.6H605z"/>
				<path style="fill:#808C93;" d="M610.9,72.4h1.2l2.5,6h-1.4l-0.5-1.3h-2.5l-0.5,1.3h-1.3L610.9,72.4z M612.3,75.9l-0.8-1.9
					l-0.8,1.9H612.3z"/>
				<path style="fill:#808C93;" d="M616.2,73.7h-1.8v-1.2h4.9v1.2h-1.8v4.7h-1.3V73.7z"/>
				<path style="fill:#808C93;" d="M621.5,72.4h1.2l2.5,6h-1.4l-0.5-1.3h-2.5l-0.5,1.3H619L621.5,72.4z M622.9,75.9l-0.8-1.9
					l-0.8,1.9H622.9z"/>
				<path style="fill:#808C93;" d="M628.7,72.5h2.3c1.9,0,3.1,1.3,3.1,2.9v0c0,1.7-1.3,3-3.1,3h-2.3V72.5z M631.1,77.2
					c1.1,0,1.8-0.7,1.8-1.8v0c0-1-0.7-1.8-1.8-1.8h-1v3.6H631.1z"/>
				<path style="fill:#808C93;" d="M635.4,72.5h4.5v1.2h-3.2v1.2h2.8V76h-2.8v1.2h3.2v1.2h-4.5V72.5z"/>
				<path style="fill:#808C93;" d="M643.6,72.5h4.5v1.2h-3.2v1.3h2.8v1.2h-2.8v2.3h-1.3V72.5z"/>
				<path style="fill:#808C93;" d="M649.2,72.5h1.3v5.9h-1.3V72.5z"/>
				<path style="fill:#808C93;" d="M652,72.5h1.4l1.6,2.5l1.6-2.5h1.4v5.9h-1.3v-3.9l-1.7,2.5h0l-1.6-2.5v3.8H652V72.5z"/>
			</g>
			<g>
				<g>
					<path style="fill:#FFFFFF;stroke:#EDEFF0;stroke-miterlimit:10;" d="M690.5,122h-185c-2.6,0-4.7-2.1-4.7-4.7V96.5
						c0-2.6,2.1-4.7,4.7-4.7h185c2.6,0,4.7,2.1,4.7,4.7v20.8C695.2,119.9,693.1,122,690.5,122z"/>
				</g>
				<g>
					<path style="fill:#C0C6C9;" d="M511.1,106.9L511.1,106.9c0-1.7,1-3.1,2.5-3.1s2.5,1.4,2.5,3.1v0c0,1.6-1,3.1-2.5,3.1
						C512,110,511.1,108.6,511.1,106.9z M515.5,106.9L515.5,106.9c0-1.4-0.8-2.7-2-2.7c-1.2,0-2,1.3-2,2.7v0c0,1.4,0.8,2.7,2,2.7
						C514.8,109.6,515.5,108.3,515.5,106.9z"/>
					<path style="fill:#C0C6C9;" d="M518,104.4l-1.1,0.4l-0.1-0.3l1.4-0.5h0.3v6H518V104.4z"/>
					<path style="fill:#C0C6C9;" d="M523.2,103.1h0.4l-4,7.9h-0.4L523.2,103.1z"/>
					<path style="fill:#C0C6C9;" d="M523.8,106.9L523.8,106.9c0-1.7,1-3.1,2.5-3.1s2.5,1.4,2.5,3.1v0c0,1.6-1,3.1-2.5,3.1
						S523.8,108.6,523.8,106.9z M528.3,106.9L528.3,106.9c0-1.4-0.8-2.7-2-2.7c-1.2,0-2,1.3-2,2.7v0c0,1.4,0.8,2.7,2,2.7
						S528.3,108.3,528.3,106.9z"/>
					<path style="fill:#C0C6C9;" d="M530.8,104.4l-1.1,0.4l-0.1-0.3l1.4-0.5h0.3v6h-0.4V104.4z"/>
					<path style="fill:#C0C6C9;" d="M536,103.1h0.4l-4,7.9H532L536,103.1z"/>
					<path style="fill:#C0C6C9;" d="M536.6,109.6l2.2-2c1-0.9,1.3-1.4,1.3-2c0-0.8-0.6-1.3-1.3-1.3c-0.8,0-1.2,0.4-1.7,1.1l-0.3-0.2
						c0.5-0.8,1.1-1.3,2.1-1.3c1,0,1.8,0.7,1.8,1.6v0c0,0.8-0.4,1.4-1.5,2.3l-1.8,1.6h3.4v0.4h-4.1V109.6z"/>
					<path style="fill:#C0C6C9;" d="M541.7,106.9L541.7,106.9c0-1.7,1-3.1,2.5-3.1s2.5,1.4,2.5,3.1v0c0,1.6-1,3.1-2.5,3.1
						C542.7,110,541.7,108.6,541.7,106.9z M546.2,106.9L546.2,106.9c0-1.4-0.8-2.7-2-2.7c-1.2,0-2,1.3-2,2.7v0c0,1.4,0.8,2.7,2,2.7
						C545.4,109.6,546.2,108.3,546.2,106.9z"/>
					<path style="fill:#C0C6C9;" d="M548.7,104.4l-1.1,0.4l-0.1-0.3l1.4-0.5h0.3v6h-0.4V104.4z"/>
					<path style="fill:#C0C6C9;" d="M550.5,108.3L550.5,108.3c0-0.7,0.6-1.2,1.3-1.5c-0.6-0.2-1.1-0.7-1.1-1.4v0c0-0.9,1-1.6,2-1.6
						c1,0,2,0.6,2,1.6v0c0,0.7-0.5,1.1-1.1,1.4c0.7,0.2,1.3,0.8,1.3,1.5v0c0,1-1,1.7-2.2,1.7C551.4,110,550.5,109.3,550.5,108.3z
						 M554.4,108.3L554.4,108.3c0-0.8-0.8-1.3-1.7-1.3s-1.7,0.5-1.7,1.3v0c0,0.7,0.7,1.3,1.7,1.3S554.4,109,554.4,108.3z
						 M554.2,105.4L554.2,105.4c0-0.7-0.7-1.2-1.5-1.2s-1.5,0.5-1.5,1.2v0c0,0.7,0.7,1.2,1.5,1.2S554.2,106.2,554.2,105.4z"/>
					<path style="fill:#C0C6C9;" d="M559.4,104.4l-1.1,0.4l-0.1-0.3l1.4-0.5h0.3v6h-0.4V104.4z"/>
					<path style="fill:#C0C6C9;" d="M561.2,108.9l0.3-0.3c0.5,0.6,1.1,1,1.9,1c0.8,0,1.5-0.5,1.5-1.3c0,0,0,0,0,0
						c0-0.8-0.8-1.3-1.9-1.3h-0.3l-0.1-0.2l2-2.4h-3.1v-0.4h3.7v0.3l-2,2.3c1.1,0.1,2.1,0.6,2.1,1.7c0,0,0,0,0,0
						c0,1-0.9,1.7-1.9,1.7C562.4,110,561.7,109.5,561.2,108.9z"/>
					<path style="fill:#C0C6C9;" d="M566.7,105.6h0.6v0.7h-0.6V105.6z M566.7,109.2h0.6v0.7h-0.6V109.2z"/>
					<path style="fill:#C0C6C9;" d="M568.5,106.9L568.5,106.9c0-1.7,1-3.1,2.5-3.1s2.5,1.4,2.5,3.1v0c0,1.6-1,3.1-2.5,3.1
						C569.5,110,568.5,108.6,568.5,106.9z M573,106.9L573,106.9c0-1.4-0.8-2.7-2-2.7c-1.2,0-2,1.3-2,2.7v0c0,1.4,0.8,2.7,2,2.7
						C572.2,109.6,573,108.3,573,106.9z"/>
					<path style="fill:#C0C6C9;" d="M574.5,106.9L574.5,106.9c0-1.7,1-3.1,2.5-3.1s2.5,1.4,2.5,3.1v0c0,1.6-1,3.1-2.5,3.1
						C575.5,110,574.5,108.6,574.5,106.9z M579,106.9L579,106.9c0-1.4-0.8-2.7-2-2.7c-1.2,0-2,1.3-2,2.7v0c0,1.4,0.8,2.7,2,2.7
						C578.2,109.6,579,108.3,579,106.9z"/>
				</g>
				<g>
					<path style="fill:#C0C6C9;" d="M586.7,108.4c0.4-1.5,0.9-1.9,1.7-1.9c0.8,0,1.9,0.8,2.6,0.8c0.5,0,0.7-0.2,1-1l0.7,0.2
						c-0.4,1.5-0.9,1.9-1.7,1.9c-0.8,0-1.9-0.8-2.6-0.8c-0.5,0-0.7,0.2-1,1L586.7,108.4z"/>
				</g>
				<g>
					<path style="fill:#C0C6C9;" d="M602.4,106.9L602.4,106.9c0-1.7,1-3.1,2.5-3.1c1.5,0,2.5,1.4,2.5,3.1v0c0,1.6-1,3.1-2.5,3.1
						C603.3,110,602.4,108.6,602.4,106.9z M606.8,106.9L606.8,106.9c0-1.4-0.8-2.7-2-2.7c-1.2,0-2,1.3-2,2.7v0c0,1.4,0.8,2.7,2,2.7
						C606.1,109.6,606.8,108.3,606.8,106.9z"/>
					<path style="fill:#C0C6C9;" d="M608.2,108.9l0.3-0.3c0.5,0.6,1.1,1,1.9,1c0.8,0,1.5-0.5,1.5-1.3c0,0,0,0,0,0
						c0-0.8-0.8-1.3-1.9-1.3h-0.3l-0.1-0.2l2-2.4h-3.1v-0.4h3.7v0.3l-2,2.3c1.1,0.1,2.1,0.6,2.1,1.7c0,0,0,0,0,0
						c0,1-0.9,1.7-1.9,1.7C609.4,110,608.7,109.5,608.2,108.9z"/>
					<path style="fill:#C0C6C9;" d="M616.7,103.1h0.4l-4,7.9h-0.4L616.7,103.1z"/>
					<path style="fill:#C0C6C9;" d="M617.4,106.9L617.4,106.9c0-1.7,1-3.1,2.5-3.1c1.5,0,2.5,1.4,2.5,3.1v0c0,1.6-1,3.1-2.5,3.1
						C618.3,110,617.4,108.6,617.4,106.9z M621.8,106.9L621.8,106.9c0-1.4-0.8-2.7-2-2.7c-1.2,0-2,1.3-2,2.7v0c0,1.4,0.8,2.7,2,2.7
						C621.1,109.6,621.8,108.3,621.8,106.9z"/>
					<path style="fill:#C0C6C9;" d="M624.3,104.4l-1.1,0.4l-0.1-0.3l1.4-0.5h0.3v6h-0.4V104.4z"/>
					<path style="fill:#C0C6C9;" d="M629.5,103.1h0.4l-4,7.9h-0.4L629.5,103.1z"/>
					<path style="fill:#C0C6C9;" d="M630.1,109.6l2.2-2c1-0.9,1.3-1.4,1.3-2c0-0.8-0.6-1.3-1.3-1.3c-0.8,0-1.2,0.4-1.7,1.1l-0.3-0.2
						c0.5-0.8,1.1-1.3,2.1-1.3c1,0,1.8,0.7,1.8,1.6v0c0,0.8-0.4,1.4-1.5,2.3l-1.8,1.6h3.4v0.4h-4.1V109.6z"/>
					<path style="fill:#C0C6C9;" d="M635.3,106.9L635.3,106.9c0-1.7,1-3.1,2.5-3.1s2.5,1.4,2.5,3.1v0c0,1.6-1,3.1-2.5,3.1
						S635.3,108.6,635.3,106.9z M639.7,106.9L639.7,106.9c0-1.4-0.8-2.7-2-2.7c-1.2,0-2,1.3-2,2.7v0c0,1.4,0.8,2.7,2,2.7
						C639,109.6,639.7,108.3,639.7,106.9z"/>
					<path style="fill:#C0C6C9;" d="M642.2,104.4l-1.1,0.4l-0.1-0.3l1.4-0.5h0.3v6h-0.4V104.4z"/>
					<path style="fill:#C0C6C9;" d="M644,108.3L644,108.3c0-0.7,0.6-1.2,1.3-1.5c-0.6-0.2-1.1-0.7-1.1-1.4v0c0-0.9,1-1.6,2-1.6
						c1,0,2,0.6,2,1.6v0c0,0.7-0.5,1.1-1.1,1.4c0.7,0.2,1.3,0.8,1.3,1.5v0c0,1-1,1.7-2.2,1.7C645,110,644,109.3,644,108.3z
						 M648,108.3L648,108.3c0-0.8-0.8-1.3-1.7-1.3c-1,0-1.7,0.5-1.7,1.3v0c0,0.7,0.7,1.3,1.7,1.3C647.3,109.6,648,109,648,108.3z
						 M647.8,105.4L647.8,105.4c0-0.7-0.7-1.2-1.5-1.2s-1.5,0.5-1.5,1.2v0c0,0.7,0.7,1.2,1.5,1.2C647,106.7,647.8,106.2,647.8,105.4
						z"/>
					<path style="fill:#C0C6C9;" d="M652.9,104.4l-1.1,0.4l-0.1-0.3l1.4-0.5h0.3v6h-0.4V104.4z"/>
					<path style="fill:#C0C6C9;" d="M654.7,108.9l0.3-0.3c0.5,0.6,1.1,1,1.9,1c0.8,0,1.5-0.5,1.5-1.3c0,0,0,0,0,0
						c0-0.8-0.8-1.3-1.9-1.3h-0.3l-0.1-0.2l2-2.4H655v-0.4h3.7v0.3l-2,2.3c1.1,0.1,2.1,0.6,2.1,1.7c0,0,0,0,0,0c0,1-0.9,1.7-1.9,1.7
						C655.9,110,655.2,109.5,654.7,108.9z"/>
					<path style="fill:#C0C6C9;" d="M660.2,105.6h0.6v0.7h-0.6V105.6z M660.2,109.2h0.6v0.7h-0.6V109.2z"/>
					<path style="fill:#C0C6C9;" d="M662,106.9L662,106.9c0-1.7,1-3.1,2.5-3.1s2.5,1.4,2.5,3.1v0c0,1.6-1,3.1-2.5,3.1
						S662,108.6,662,106.9z M666.5,106.9L666.5,106.9c0-1.4-0.8-2.7-2-2.7c-1.2,0-2,1.3-2,2.7v0c0,1.4,0.8,2.7,2,2.7
						C665.7,109.6,666.5,108.3,666.5,106.9z"/>
					<path style="fill:#C0C6C9;" d="M668.1,106.9L668.1,106.9c0-1.7,1-3.1,2.5-3.1s2.5,1.4,2.5,3.1v0c0,1.6-1,3.1-2.5,3.1
						C669,110,668.1,108.6,668.1,106.9z M672.5,106.9L672.5,106.9c0-1.4-0.8-2.7-2-2.7c-1.2,0-2,1.3-2,2.7v0c0,1.4,0.8,2.7,2,2.7
						C671.8,109.6,672.5,108.3,672.5,106.9z"/>
				</g>
			</g>
		</g>
	</g>
	<g>
		<g>
			<g>
				<path style="fill:#C0C6C9;" d="M110.3,146.7h6.1v0.6h-5.5v3.4h4.9v0.6h-4.9v3.5h5.6v0.6h-6.2V146.7z"/>
				<path style="fill:#C0C6C9;" d="M118.3,156.4l0.4-0.5c0.8,0.6,1.6,0.9,2.5,0.9c1.4,0,2.5-0.8,2.5-2.4v-0.9
					c-0.5,0.8-1.4,1.5-2.6,1.5c-1.5,0-3-1.2-3-3v0c0-1.8,1.5-3,3-3c1.3,0,2.1,0.7,2.6,1.4v-1.3h0.6v5.3c0,0.9-0.3,1.6-0.8,2.1
					c-0.5,0.5-1.4,0.8-2.3,0.8C120.1,157.3,119.1,157,118.3,156.4z M123.7,151.9L123.7,151.9c0-1.5-1.3-2.4-2.6-2.4
					c-1.3,0-2.4,0.9-2.4,2.4v0c0,1.4,1.1,2.4,2.4,2.4C122.4,154.3,123.7,153.3,123.7,151.9z"/>
				<path style="fill:#C0C6C9;" d="M126.4,156.4l0.4-0.5c0.8,0.6,1.6,0.9,2.5,0.9c1.4,0,2.5-0.8,2.5-2.4v-0.9
					c-0.5,0.8-1.4,1.5-2.6,1.5c-1.5,0-3-1.2-3-3v0c0-1.8,1.5-3,3-3c1.3,0,2.1,0.7,2.6,1.4v-1.3h0.6v5.3c0,0.9-0.3,1.6-0.8,2.1
					c-0.5,0.5-1.4,0.8-2.3,0.8C128.2,157.3,127.3,157,126.4,156.4z M131.8,151.9L131.8,151.9c0-1.5-1.3-2.4-2.6-2.4
					c-1.3,0-2.4,0.9-2.4,2.4v0c0,1.4,1.1,2.4,2.4,2.4C130.5,154.3,131.8,153.3,131.8,151.9z"/>
				<path style="fill:#C0C6C9;" d="M139.4,147.3l-1.7,0.6l-0.2-0.5l2-0.7h0.5v8.7h-0.6V147.3z"/>
			</g>
			<g>
				<g>
					<path style="fill:#FFFFFF;" d="M39.3,110.3c-2.7,0-4.9-2.2-4.9-4.9V97c0-2.7,2.2-4.9,4.9-4.9h8.4c2.7,0,4.9,2.2,4.9,4.9v8.4
						c0,2.7-2.2,4.9-4.9,4.9H39.3z"/>
				</g>
				<g>
					<g>
						<path style="fill:#ABB3B7;" d="M47.7,92.7c2.4,0,4.4,2,4.4,4.4v8.4c0,2.4-2,4.4-4.4,4.4h-8.4c-2.4,0-4.4-2-4.4-4.4V97
							c0-2.4,2-4.4,4.4-4.4H47.7 M47.7,91.7h-8.4c-3,0-5.4,2.4-5.4,5.4v8.4c0,3,2.4,5.4,5.4,5.4h8.4c3,0,5.4-2.4,5.4-5.4V97
							C53.1,94.1,50.7,91.7,47.7,91.7L47.7,91.7z"/>
					</g>
				</g>
			</g>
			<g>
				<path style="fill:#89BFD1;" d="M71.7,133.2h-8.4c-3,0-5.4-2.4-5.4-5.4v-8.4c0-3,2.4-5.4,5.4-5.4h8.4c3,0,5.4,2.4,5.4,5.4v8.4
					C77,130.8,74.6,133.2,71.7,133.2z"/>
			</g>
			<g>
				<path style="fill:#C0C6C9;" d="M60.8,96.4h0.6l3.5,5.1l3.5-5.1h0.6v8.6h-0.6v-7.5l-3.4,5h0l-3.4-5v7.5h-0.6V96.4z"/>
				<path style="fill:#C0C6C9;" d="M71.3,96.3h0.8v0.8h-0.8V96.3z M71.4,98.7H72v6.3h-0.6V98.7z"/>
				<path style="fill:#C0C6C9;" d="M74.4,98.7H75v1.2c0.4-0.7,1.1-1.3,2.3-1.3c1.6,0,2.5,1.1,2.5,2.6v3.8h-0.6v-3.7
					c0-1.3-0.7-2.1-2-2.1c-1.2,0-2.2,0.9-2.2,2.2v3.6h-0.6V98.7z"/>
				<path style="fill:#C0C6C9;" d="M81.9,96h0.6v3.9c0.4-0.7,1.1-1.3,2.3-1.3c1.6,0,2.5,1.1,2.5,2.6v3.8h-0.6v-3.7
					c0-1.3-0.7-2.1-2-2.1c-1.2,0-2.2,0.9-2.2,2.2v3.6h-0.6V96z"/>
				<path style="fill:#C0C6C9;" d="M89,103.2L89,103.2c0-1.3,1.1-2.1,2.7-2.1c0.9,0,1.5,0.1,2.1,0.3v-0.3c0-1.3-0.8-1.9-2.1-1.9
					c-0.8,0-1.4,0.2-2,0.5l-0.2-0.5c0.7-0.3,1.4-0.5,2.2-0.5c0.9,0,1.5,0.2,2,0.7c0.4,0.4,0.6,1,0.6,1.8v3.9h-0.6v-1
					c-0.4,0.6-1.2,1.2-2.4,1.2C90.2,105.2,89,104.5,89,103.2z M93.8,102.7V102c-0.5-0.1-1.2-0.3-2.1-0.3c-1.3,0-2.1,0.6-2.1,1.5v0
					c0,0.9,0.9,1.4,1.8,1.4C92.7,104.6,93.8,103.8,93.8,102.7z"/>
				<path style="fill:#C0C6C9;" d="M100.3,101.4v-5h0.6v5c0,2,1.1,3.2,2.9,3.2c1.8,0,2.9-1.1,2.9-3.1v-5h0.6v5
					c0,2.5-1.4,3.8-3.5,3.8C101.7,105.2,100.3,103.9,100.3,101.4z"/>
				<path style="fill:#C0C6C9;" d="M109.6,98.7h0.6v1.2c0.4-0.7,1.1-1.3,2.3-1.3c1.6,0,2.5,1.1,2.5,2.6v3.8h-0.6v-3.7
					c0-1.3-0.7-2.1-2-2.1c-1.2,0-2.2,0.9-2.2,2.2v3.6h-0.6V98.7z"/>
				<path style="fill:#C0C6C9;" d="M117.2,96.3h0.8v0.8h-0.8V96.3z M117.3,98.7h0.6v6.3h-0.6V98.7z"/>
				<path style="fill:#C0C6C9;" d="M119.9,101.9L119.9,101.9c0-2.1,1.5-3.3,3.1-3.3c1.3,0,2.1,0.7,2.6,1.5V96h0.6v9h-0.6v-1.4
					c-0.5,0.8-1.3,1.6-2.6,1.6C121.4,105.2,119.9,104,119.9,101.9z M125.5,101.9L125.5,101.9c0-1.6-1.3-2.7-2.6-2.7
					c-1.4,0-2.5,1-2.5,2.7v0c0,1.7,1.1,2.7,2.5,2.7C124.3,104.6,125.5,103.5,125.5,101.9z"/>
				<path style="fill:#C0C6C9;" d="M127.9,103.2L127.9,103.2c0-1.3,1.1-2.1,2.7-2.1c0.9,0,1.5,0.1,2.1,0.3v-0.3
					c0-1.3-0.8-1.9-2.1-1.9c-0.8,0-1.4,0.2-2,0.5l-0.2-0.5c0.7-0.3,1.4-0.5,2.2-0.5c0.9,0,1.5,0.2,2,0.7c0.4,0.4,0.6,1,0.6,1.8v3.9
					h-0.6v-1c-0.4,0.6-1.2,1.2-2.4,1.2C129.1,105.2,127.9,104.5,127.9,103.2z M132.7,102.7V102c-0.5-0.1-1.2-0.3-2.1-0.3
					c-1.3,0-2.1,0.6-2.1,1.5v0c0,0.9,0.9,1.4,1.8,1.4C131.6,104.6,132.7,103.8,132.7,102.7z"/>
				<path style="fill:#C0C6C9;" d="M135.1,101.9L135.1,101.9c0-2.1,1.5-3.3,3.1-3.3c1.3,0,2.1,0.7,2.6,1.5V96h0.6v9h-0.6v-1.4
					c-0.5,0.8-1.3,1.6-2.6,1.6C136.6,105.2,135.1,104,135.1,101.9z M140.7,101.9L140.7,101.9c0-1.6-1.3-2.7-2.6-2.7
					c-1.4,0-2.5,1-2.5,2.7v0c0,1.7,1.1,2.7,2.5,2.7C139.5,104.6,140.7,103.5,140.7,101.9z"/>
				<path style="fill:#C0C6C9;" d="M143.2,101.9L143.2,101.9c0-1.8,1.3-3.3,3-3.3c1.8,0,2.9,1.4,2.9,3.3c0,0.1,0,0.1,0,0.2h-5.2
					c0.1,1.6,1.2,2.5,2.5,2.5c1,0,1.6-0.4,2.2-1l0.4,0.4c-0.6,0.7-1.4,1.2-2.6,1.2C144.6,105.2,143.2,103.9,143.2,101.9z
					 M148.4,101.6c-0.1-1.3-0.8-2.4-2.3-2.4c-1.2,0-2.2,1-2.3,2.4H148.4z"/>
				<path style="fill:#C0C6C9;" d="M155.6,97l-1.7,0.6l-0.2-0.5l2-0.7h0.5v8.7h-0.6V97z"/>
			</g>
			<g>
				<polyline style="fill:none;stroke:#FFFFFF;stroke-width:2;stroke-miterlimit:10;" points="62.1,123.4 65.9,127.2 73.8,119.2 
									"/>
			</g>
			<g>
				<path style="fill:#C0C6C9;" d="M85.9,123.9L85.9,123.9c0-2.4,1.7-4.5,4.3-4.5c1.4,0,2.3,0.4,3.2,1.1l-0.4,0.5
					c-0.7-0.6-1.5-1-2.8-1c-2.1,0-3.6,1.8-3.6,3.9v0c0,2.2,1.4,3.9,3.7,3.9c1.1,0,2.1-0.5,2.7-1v-2.5h-2.9v-0.6h3.5v3.3
					c-0.8,0.7-2,1.3-3.4,1.3C87.5,128.3,85.9,126.3,85.9,123.9z"/>
				<path style="fill:#C0C6C9;" d="M95.8,121.9h0.6v1.8c0.5-1.1,1.5-1.9,2.8-1.9v0.7h-0.1c-1.5,0-2.7,1.1-2.7,3.1v2.6h-0.6V121.9z"
					/>
				<path style="fill:#C0C6C9;" d="M100.6,125.8v-3.8h0.6v3.7c0,1.3,0.7,2.1,2,2.1c1.2,0,2.2-0.9,2.2-2.2v-3.6h0.6v6.3h-0.6V127
					c-0.4,0.7-1.1,1.3-2.3,1.3C101.6,128.3,100.6,127.3,100.6,125.8z"/>
				<path style="fill:#C0C6C9;" d="M108.3,121.9h0.6v1.4c0.5-0.8,1.3-1.6,2.6-1.6c1.5,0,3.1,1.2,3.1,3.3v0c0,2-1.5,3.3-3.1,3.3
					c-1.3,0-2.1-0.7-2.6-1.5v3.3h-0.6V121.9z M113.9,125.1L113.9,125.1c0-1.7-1.1-2.7-2.5-2.7c-1.3,0-2.6,1.1-2.6,2.7v0
					c0,1.6,1.3,2.7,2.6,2.7C112.8,127.8,113.9,126.8,113.9,125.1z"/>
				<path style="fill:#C0C6C9;" d="M116,125.1L116,125.1c0-1.8,1.4-3.3,3.2-3.3c1.9,0,3.2,1.5,3.2,3.3v0c0,1.8-1.4,3.3-3.2,3.3
					C117.4,128.3,116,126.8,116,125.1z M121.8,125.1L121.8,125.1c0-1.5-1.1-2.7-2.6-2.7c-1.5,0-2.6,1.2-2.6,2.7v0
					c0,1.5,1.1,2.7,2.6,2.7C120.8,127.8,121.8,126.6,121.8,125.1z"/>
				<path style="fill:#C0C6C9;" d="M129.1,120.2l-1.7,0.6l-0.2-0.5l2-0.7h0.5v8.7h-0.6V120.2z"/>
			</g>
			<g>
				<g>
					<path style="fill:#F7F6F6;" d="M87.2,159.8c-2.7,0-4.9-2.2-4.9-4.9v-8.4c0-2.7,2.2-4.9,4.9-4.9h8.4c2.7,0,4.9,2.2,4.9,4.9v8.4
						c0,2.7-2.2,4.9-4.9,4.9H87.2z"/>
				</g>
				<g>
					<path style="fill:#ABB3B7;" d="M95.6,142.2c2.4,0,4.4,2,4.4,4.4v8.4c0,2.4-2,4.4-4.4,4.4h-8.4c-2.4,0-4.4-2-4.4-4.4v-8.4
						c0-2.4,2-4.4,4.4-4.4H95.6 M95.6,141.2h-8.4c-3,0-5.4,2.4-5.4,5.4v8.4c0,3,2.4,5.4,5.4,5.4h8.4c3,0,5.4-2.4,5.4-5.4v-8.4
						C101,143.6,98.6,141.2,95.6,141.2L95.6,141.2z"/>
				</g>
			</g>
			<g>
				<g>
					<g>
						<path style="fill:#808C93;" d="M81.9,136.9c0,2.8,0,5.6,0,8.3c0,0.2-0.1,0.4-0.1,0.5c-0.1,0.7-0.4,1.4-0.7,2
							c-0.4,0.7-0.9,1.2-1.5,1.7c-0.6,0.5-1.2,0.8-2,1c-0.3,0.1-0.6,0.1-0.9,0.2c-0.5,0-1,0-1.5,0c-0.3-0.1-0.6-0.1-0.8-0.2
							c-1.3-0.3-2.4-0.9-3.3-1.8c-1.9-1.9-3.7-3.7-5.6-5.6c-0.3-0.3-0.7-0.7-0.8-1.2c0-0.3,0-0.5,0-0.8c0,0,0-0.1,0-0.1
							c0.1-0.4,0.4-0.8,0.7-1c0.7-0.4,1.4-0.3,2-0.1c0.8,0.4,1.6,0.8,2.4,1.2c0.1,0,0.1,0.1,0.2,0.1c0-0.1,0-0.2,0-0.3
							c0-3.5,0-7,0-10.4c0-0.4,0.2-0.7,0.4-0.9c0.3-0.3,0.6-0.5,1-0.7c0.3,0,0.5,0,0.8,0c0,0,0,0,0,0c0.9,0.2,1.4,1,1.4,1.8
							c0,0.9,0,1.9,0,2.8c1.2-0.4,2-0.1,2.6,1c0.5-0.3,1-0.3,1.6-0.2c0.6,0.2,0.9,0.5,1.1,1.1c0.1,0,0.1,0,0.2-0.1
							c0.8-0.4,1.9-0.2,2.4,0.6C81.7,136.4,81.8,136.7,81.9,136.9z M71.1,136.5c0,1.9,0,3.7,0,5.6c0,0.5-0.3,0.7-0.8,0.5
							c-0.9-0.4-1.7-0.9-2.6-1.3c-0.3-0.1-0.6-0.3-0.9-0.4c-0.4-0.1-0.8,0-1,0.4c-0.2,0.3-0.1,0.7,0.2,1c1.9,1.9,3.8,3.8,5.7,5.7
							c0.6,0.6,1.3,1.1,2.1,1.4c1.1,0.4,2.2,0.6,3.4,0.3c1.7-0.4,2.9-1.5,3.5-3.2c0.3-0.7,0.3-1.5,0.3-2.3c0-2.1,0-4.3,0-6.4
							c0-0.2,0-0.4,0-0.7c0-0.4-0.5-0.8-0.9-0.8c-0.5,0-0.8,0.5-0.8,0.9c0,0.7,0,1.5,0,2.2c0,0.3-0.2,0.5-0.5,0.5
							c-0.3,0-0.5-0.2-0.5-0.6c0-1,0-2.1,0-3.1c0-0.2-0.1-0.4-0.3-0.6c-0.3-0.2-0.6-0.4-1-0.2c-0.3,0.2-0.5,0.5-0.5,0.9c0,1,0,2,0,3
							c0,0.3-0.2,0.5-0.5,0.5c-0.3,0-0.5-0.2-0.5-0.6c0-1.3,0-2.7,0-4c0-0.1,0-0.1,0-0.2c-0.2-0.5-0.5-0.7-1-0.6
							c-0.4,0-0.7,0.5-0.7,0.9c0,1.3,0,2.7,0,4c0,0.3-0.2,0.5-0.5,0.5c-0.3,0-0.4-0.1-0.4-0.5c0-2.6,0-5.2,0-7.8c0-0.3,0-0.5,0-0.8
							c0-0.5-0.4-0.8-0.9-0.8c-0.4,0-0.8,0.4-0.8,0.9C71.1,132.7,71.1,134.6,71.1,136.5z"/>
					</g>
				</g>
				<g>
					<path style="fill:#FFFFFF;" d="M71.1,136.5c0-1.9,0-3.7,0-5.6c0-0.4,0.4-0.9,0.8-0.9c0.5,0,0.9,0.3,0.9,0.8c0,0.3,0,0.5,0,0.8
						c0,2.6,0,5.2,0,7.8c0,0.3,0.1,0.5,0.4,0.5c0.3,0,0.5-0.2,0.5-0.5c0-1.3,0-2.7,0-4c0-0.4,0.3-0.8,0.7-0.9c0.5-0.1,0.8,0.1,1,0.6
						c0,0.1,0,0.1,0,0.2c0,1.3,0,2.7,0,4c0,0.4,0.2,0.6,0.5,0.6c0.3,0,0.5-0.2,0.5-0.5c0-1,0-2,0-3c0-0.4,0.2-0.7,0.5-0.9
						c0.4-0.2,0.7-0.1,1,0.2c0.2,0.1,0.3,0.3,0.3,0.6c0,1,0,2.1,0,3.1c0,0.4,0.2,0.6,0.5,0.6c0.3,0,0.5-0.2,0.5-0.5
						c0-0.7,0-1.5,0-2.2c0-0.4,0.3-0.9,0.8-0.9c0.4,0,0.9,0.4,0.9,0.8c0,0.2,0,0.4,0,0.7c0,2.1,0,4.3,0,6.4c0,0.8,0,1.6-0.3,2.3
						c-0.6,1.7-1.8,2.8-3.5,3.2c-1.2,0.3-2.3,0.1-3.4-0.3c-0.8-0.3-1.5-0.8-2.1-1.4c-1.9-1.9-3.8-3.8-5.7-5.7
						c-0.3-0.3-0.4-0.7-0.2-1c0.2-0.3,0.6-0.5,1-0.4c0.3,0.1,0.6,0.2,0.9,0.4c0.9,0.4,1.8,0.9,2.6,1.3c0.4,0.2,0.8,0,0.8-0.5
						C71,140.2,71.1,138.3,71.1,136.5z"/>
				</g>
			</g>
			<g>
				<path style="fill:#FFFFFF;stroke:#EDEFF0;stroke-miterlimit:10;" d="M157.9,79.7H31.4c-7.2,0-13-5.8-13-13v0c0-7.2,5.8-13,13-13
					h126.5c7.2,0,13,5.8,13,13v0C170.9,73.8,165.1,79.7,157.9,79.7z"/>
			</g>
			<g>
				<path style="fill:#808C93;" d="M32.9,69.2l0.8-1c0.6,0.5,1.2,0.8,1.9,0.8c0.6,0,0.9-0.2,0.9-0.6v0c0-0.4-0.2-0.5-1.3-0.8
					c-1.3-0.3-2.1-0.7-2.1-2v0c0-1.2,0.9-2,2.3-2c0.9,0,1.7,0.3,2.4,0.8l-0.7,1.1c-0.6-0.4-1.1-0.6-1.7-0.6c-0.5,0-0.8,0.2-0.8,0.6
					v0c0,0.4,0.3,0.6,1.4,0.9c1.3,0.3,2.1,0.8,2.1,1.9v0c0,1.3-1,2-2.4,2C34.7,70.3,33.7,69.9,32.9,69.2z"/>
				<path style="fill:#808C93;" d="M39.3,63.7h4.9V65h-3.5v1.3h3.1v1.3h-3.1v1.4h3.5v1.3h-4.9V63.7z"/>
				<path style="fill:#808C93;" d="M45.5,63.7h1.4v5.2h3.2v1.3h-4.7V63.7z"/>
				<path style="fill:#808C93;" d="M51.2,63.7h4.9V65h-3.5v1.3h3.1v1.3h-3.1v1.4h3.5v1.3h-4.9V63.7z"/>
				<path style="fill:#808C93;" d="M57.1,66.9L57.1,66.9c0-1.9,1.4-3.4,3.4-3.4c1.2,0,2,0.4,2.6,1l-0.9,1c-0.5-0.5-1-0.7-1.7-0.7
					c-1.1,0-1.9,0.9-1.9,2v0c0,1.1,0.8,2,1.9,2c0.7,0,1.2-0.3,1.7-0.8l0.9,0.9c-0.7,0.7-1.4,1.2-2.7,1.2
					C58.5,70.3,57.1,68.8,57.1,66.9z"/>
				<path style="fill:#808C93;" d="M64.3,63.7h1.4v6.5h-1.4V63.7z"/>
				<path style="fill:#808C93;" d="M67,66.9L67,66.9c0-1.9,1.5-3.4,3.4-3.4c2,0,3.4,1.5,3.4,3.3v0c0,1.8-1.5,3.3-3.4,3.3
					C68.5,70.3,67,68.8,67,66.9z M72.4,66.9L72.4,66.9c0-1.1-0.8-2.1-2-2.1c-1.1,0-1.9,0.9-1.9,2v0c0,1.1,0.8,2,2,2
					C71.6,69,72.4,68.1,72.4,66.9z"/>
				<path style="fill:#808C93;" d="M75.2,63.7h1.3l3,4v-4h1.4v6.5h-1.2L76.6,66v4.1h-1.4V63.7z"/>
				<path style="fill:#808C93;" d="M84.7,63.6H86l2.8,6.5h-1.5l-0.6-1.5H84l-0.6,1.5h-1.5L84.7,63.6z M86.2,67.5l-0.9-2.1l-0.9,2.1
					H86.2z"/>
				<path style="fill:#808C93;" d="M89.8,63.7h3c0.8,0,1.5,0.2,1.9,0.7c0.4,0.4,0.6,0.9,0.6,1.5v0c0,1-0.6,1.7-1.4,2l1.6,2.3h-1.7
					l-1.4-2.1h0h-1.1v2.1h-1.4V63.7z M92.7,66.8c0.7,0,1.1-0.4,1.1-0.9v0c0-0.6-0.4-0.9-1.1-0.9h-1.4v1.9H92.7z"/>
				<path style="fill:#808C93;" d="M99.3,63.7h1.5l1.7,2.7l1.7-2.7h1.5v6.5h-1.4v-4.2l-1.8,2.8h0l-1.8-2.7v4.2h-1.4V63.7z"/>
				<path style="fill:#808C93;" d="M107.3,63.7h4.9V65h-3.5v1.3h3.1v1.3h-3.1v1.4h3.5v1.3h-4.9V63.7z"/>
				<path style="fill:#808C93;" d="M113.5,63.7h2.5c2,0,3.4,1.4,3.4,3.2v0c0,1.8-1.4,3.2-3.4,3.2h-2.5V63.7z M116,68.9
					c1.2,0,2-0.8,2-1.9v0c0-1.1-0.8-2-2-2h-1.1v3.9H116z"/>
				<path style="fill:#808C93;" d="M120.8,63.7h1.4v6.5h-1.4V63.7z"/>
				<path style="fill:#808C93;" d="M123.8,63.7h2.5c2,0,3.4,1.4,3.4,3.2v0c0,1.8-1.4,3.2-3.4,3.2h-2.5V63.7z M126.4,68.9
					c1.2,0,2-0.8,2-1.9v0c0-1.1-0.8-2-2-2h-1.1v3.9H126.4z"/>
				<path style="fill:#808C93;" d="M130.8,66.9L130.8,66.9c0-1.9,1.5-3.4,3.4-3.4c2,0,3.4,1.5,3.4,3.3v0c0,1.8-1.5,3.3-3.4,3.3
					C132.2,70.3,130.8,68.8,130.8,66.9z M136.2,66.9L136.2,66.9c0-1.1-0.8-2.1-2-2.1c-1.1,0-1.9,0.9-1.9,2v0c0,1.1,0.8,2,2,2
					C135.4,69,136.2,68.1,136.2,66.9z"/>
				<path style="fill:#808C93;" d="M138.9,63.7h3c0.8,0,1.5,0.2,1.9,0.7c0.4,0.4,0.6,0.9,0.6,1.5v0c0,1-0.6,1.7-1.4,2l1.6,2.3h-1.7
					l-1.4-2.1h0h-1.1v2.1h-1.4V63.7z M141.8,66.8c0.7,0,1.1-0.4,1.1-0.9v0c0-0.6-0.4-0.9-1.1-0.9h-1.4v1.9H141.8z"/>
				<path style="fill:#808C93;" d="M145.6,63.7h4.9V65H147v1.3h3.1v1.3H147v1.4h3.5v1.3h-4.9V63.7z"/>
				<path style="fill:#808C93;" d="M151.4,69.2l0.8-1c0.6,0.5,1.2,0.8,1.9,0.8c0.6,0,0.9-0.2,0.9-0.6v0c0-0.4-0.2-0.5-1.3-0.8
					c-1.3-0.3-2.1-0.7-2.1-2v0c0-1.2,0.9-2,2.3-2c0.9,0,1.7,0.3,2.4,0.8l-0.7,1.1c-0.6-0.4-1.1-0.6-1.7-0.6c-0.5,0-0.8,0.2-0.8,0.6
					v0c0,0.4,0.3,0.6,1.4,0.9c1.3,0.3,2.1,0.8,2.1,1.9v0c0,1.3-1,2-2.4,2C153.1,70.3,152.1,69.9,151.4,69.2z"/>
			</g>
			<g>
				<circle style="fill:#D5D9DB;" cx="168.9" cy="57.7" r="5"/>
			</g>
		</g>
	</g>
	<g>
		<g>
			<g>
				<g>
					<circle style="fill:#FFFFFF;" cx="288.2" cy="106.6" r="9.6"/>
				</g>
				<g>
					<g>
						<path style="fill:#ABB3B7;" d="M288.2,97.5c5,0,9.1,4.1,9.1,9.1c0,5-4.1,9.1-9.1,9.1c-5,0-9.1-4.1-9.1-9.1
							C279.1,101.6,283.2,97.5,288.2,97.5 M288.2,96.5L288.2,96.5c-5.6,0-10.1,4.5-10.1,10.1v0c0,5.6,4.5,10.1,10.1,10.1h0
							c5.6,0,10.1-4.5,10.1-10.1v0C298.3,101,293.8,96.5,288.2,96.5L288.2,96.5z"/>
					</g>
				</g>
			</g>
			<g>
				<path style="fill:#C0C6C9;" d="M307.9,102.4l-1.8,0.6l-0.2-0.5l2.1-0.8h0.5v9.2h-0.7V102.4z"/>
				<path style="fill:#C0C6C9;" d="M310.7,109.5l0.5-0.5c0.8,0.8,1.8,1.3,2.7,1.3c1.4,0,2.4-1,2.4-2.3v0c0-1.3-1-2.2-2.5-2.2
					c-0.8,0-1.5,0.3-2.1,0.6l-0.5-0.3l0.3-4.4h5.1v0.7h-4.5l-0.2,3.4c0.6-0.3,1.2-0.5,2-0.5c1.8,0,3.1,1.1,3.1,2.7v0
					c0,1.7-1.3,2.9-3.2,2.9C312.7,111,311.5,110.3,310.7,109.5z"/>
				<path style="fill:#C0C6C9;" d="M322.9,104.2h0.6v1.2c0.4-0.7,1-1.3,2.2-1.3c1.2,0,1.9,0.7,2.2,1.4c0.4-0.7,1.1-1.4,2.4-1.4
					c1.6,0,2.5,1.1,2.5,2.8v4h-0.6v-3.9c0-1.4-0.7-2.3-2-2.3c-1.1,0-2.1,0.9-2.1,2.3v3.9h-0.6v-4c0-1.4-0.8-2.2-1.9-2.2
					s-2.1,1-2.1,2.4v3.8h-0.6V104.2z"/>
				<path style="fill:#C0C6C9;" d="M335.3,101.6h0.8v0.9h-0.8V101.6z M335.4,104.2h0.6v6.6h-0.6V104.2z"/>
				<path style="fill:#C0C6C9;" d="M338.6,104.2h0.6v1.2c0.4-0.8,1.2-1.4,2.4-1.4c1.7,0,2.7,1.1,2.7,2.7v4.1h-0.6v-3.9
					c0-1.4-0.8-2.3-2.1-2.3c-1.3,0-2.3,1-2.3,2.4v3.8h-0.6V104.2z"/>
			</g>
			<g>
				<g>
					<circle style="fill:#FFFFFF;" cx="364" cy="106.6" r="9.6"/>
				</g>
				<g>
					<g>
						<path style="fill:#ABB3B7;" d="M364,97.5c5,0,9.1,4.1,9.1,9.1c0,5-4.1,9.1-9.1,9.1c-5,0-9.1-4.1-9.1-9.1
							C354.9,101.6,359,97.5,364,97.5 M364,96.5c-5.6,0-10.1,4.5-10.1,10.1v0c0,5.6,4.5,10.1,10.1,10.1s10.1-4.5,10.1-10.1v0
							C374.1,101,369.6,96.5,364,96.5L364,96.5z"/>
					</g>
				</g>
			</g>
			<g>
				<g>
					<path style="fill:#89BFD1;" d="M364,97.5c5,0,9.1,4.1,9.1,9.1c0,5-4.1,9.1-9.1,9.1c-5,0-9.1-4.1-9.1-9.1
						C354.9,101.6,359,97.5,364,97.5 M364,96.5c-5.6,0-10.1,4.5-10.1,10.1v0c0,5.6,4.5,10.1,10.1,10.1s10.1-4.5,10.1-10.1v0
						C374.1,101,369.6,96.5,364,96.5L364,96.5z"/>
				</g>
			</g>
			<g>
				<path style="fill:#C0C6C9;" d="M382.1,109.3l0.5-0.4c0.7,0.9,1.6,1.5,2.8,1.5c1.2,0,2.2-0.8,2.2-2c0,0,0,0,0,0
					c0-1.3-1.2-2-2.8-2h-0.5l-0.2-0.4l3.1-3.6h-4.8v-0.6h5.7v0.5l-3.1,3.5c1.7,0.1,3.2,0.9,3.2,2.6c0,0,0,0,0,0c0,1.6-1.4,2.7-3,2.7
					C384,111,382.9,110.3,382.1,109.3z"/>
				<path style="fill:#C0C6C9;" d="M390.2,106.3L390.2,106.3c0-2.5,1.5-4.7,3.8-4.7c2.3,0,3.8,2.2,3.8,4.7v0c0,2.5-1.5,4.7-3.8,4.7
					S390.2,108.8,390.2,106.3z M397.1,106.3L397.1,106.3c0-2.1-1.2-4.1-3.1-4.1c-1.9,0-3.1,2-3.1,4.1v0c0,2.1,1.2,4.1,3.1,4.1
					C395.9,110.4,397.1,108.4,397.1,106.3z"/>
				<path style="fill:#C0C6C9;" d="M403.7,104.2h0.6v1.2c0.4-0.7,1-1.3,2.2-1.3c1.2,0,1.9,0.7,2.2,1.4c0.4-0.7,1.1-1.4,2.4-1.4
					c1.6,0,2.5,1.1,2.5,2.8v4h-0.6v-3.9c0-1.4-0.7-2.3-2-2.3c-1.1,0-2.1,0.9-2.1,2.3v3.9h-0.6v-4c0-1.4-0.8-2.2-1.9-2.2
					s-2.1,1-2.1,2.4v3.8h-0.6V104.2z"/>
				<path style="fill:#C0C6C9;" d="M416.1,101.6h0.8v0.9h-0.8V101.6z M416.2,104.2h0.6v6.6h-0.6V104.2z"/>
				<path style="fill:#C0C6C9;" d="M419.3,104.2h0.6v1.2c0.4-0.8,1.2-1.4,2.4-1.4c1.7,0,2.7,1.1,2.7,2.7v4.1h-0.6v-3.9
					c0-1.4-0.8-2.3-2.1-2.3c-1.3,0-2.3,1-2.3,2.4v3.8h-0.6V104.2z"/>
			</g>
			<g>
				<path style="fill:#808C93;" d="M279.2,76h4.9v1.3h-3.5v1.3h3.1v1.3h-3.1v1.4h3.5v1.3h-4.9V76z"/>
				<path style="fill:#808C93;" d="M285,81.5l0.8-1c0.6,0.5,1.2,0.8,1.9,0.8c0.6,0,0.9-0.2,0.9-0.6v0c0-0.4-0.2-0.5-1.3-0.8
					c-1.3-0.3-2.1-0.7-2.1-2v0c0-1.2,0.9-2,2.3-2c0.9,0,1.7,0.3,2.4,0.8l-0.7,1.1c-0.6-0.4-1.1-0.6-1.7-0.6c-0.5,0-0.8,0.2-0.8,0.6
					v0c0,0.4,0.3,0.6,1.4,0.9c1.3,0.3,2.1,0.8,2.1,1.9v0c0,1.3-1,2-2.4,2C286.7,82.6,285.7,82.2,285,81.5z"/>
				<path style="fill:#808C93;" d="M291,79.3L291,79.3c0-1.9,1.4-3.4,3.4-3.4c1.2,0,2,0.4,2.6,1l-0.9,1c-0.5-0.5-1-0.7-1.7-0.7
					c-1.1,0-1.9,0.9-1.9,2v0c0,1.1,0.8,2,1.9,2c0.7,0,1.2-0.3,1.7-0.8l0.9,0.9c-0.7,0.7-1.4,1.2-2.7,1.2
					C292.4,82.6,291,81.1,291,79.3z"/>
				<path style="fill:#808C93;" d="M300.4,76h1.3l2.8,6.5H303l-0.6-1.5h-2.7l-0.6,1.5h-1.5L300.4,76z M301.9,79.8l-0.9-2.1l-0.9,2.1
					H301.9z"/>
				<path style="fill:#808C93;" d="M305.4,76h1.4v5.2h3.2v1.3h-4.7V76z"/>
				<path style="fill:#808C93;" d="M313.4,76h1.3l2.8,6.5H316l-0.6-1.5h-2.7l-0.6,1.5h-1.5L313.4,76z M314.9,79.8l-0.9-2.1l-0.9,2.1
					H314.9z"/>
				<path style="fill:#808C93;" d="M321.3,76h2.5c2,0,3.4,1.4,3.4,3.2v0c0,1.8-1.4,3.2-3.4,3.2h-2.5V76z M323.8,81.2
					c1.2,0,2-0.8,2-1.9v0c0-1.1-0.8-2-2-2h-1.1v3.9H323.8z"/>
				<path style="fill:#808C93;" d="M328.5,76h4.9v1.3h-3.5v1.3h3.1v1.3h-3.1v1.4h3.5v1.3h-4.9V76z"/>
				<path style="fill:#808C93;" d="M336.9,76h1.6l1.7,4.6l1.7-4.6h1.5l-2.6,6.5h-1.3L336.9,76z"/>
				<path style="fill:#808C93;" d="M344.5,76h1.4v6.5h-1.4V76z"/>
				<path style="fill:#808C93;" d="M347.1,81.5l0.8-1c0.6,0.5,1.2,0.8,1.9,0.8c0.6,0,0.9-0.2,0.9-0.6v0c0-0.4-0.2-0.5-1.3-0.8
					c-1.3-0.3-2.1-0.7-2.1-2v0c0-1.2,0.9-2,2.3-2c0.9,0,1.7,0.3,2.4,0.8l-0.7,1.1c-0.6-0.4-1.1-0.6-1.7-0.6s-0.8,0.2-0.8,0.6v0
					c0,0.4,0.3,0.6,1.4,0.9c1.3,0.3,2.1,0.8,2.1,1.9v0c0,1.3-1,2-2.4,2C348.8,82.6,347.8,82.2,347.1,81.5z"/>
				<path style="fill:#808C93;" d="M353.3,79.7V76h1.4v3.7c0,1.1,0.5,1.6,1.4,1.6c0.9,0,1.4-0.5,1.4-1.6V76h1.4v3.7
					c0,2-1.1,2.9-2.8,2.9C354.4,82.6,353.3,81.6,353.3,79.7z"/>
				<path style="fill:#808C93;" d="M362.4,76h1.3l2.8,6.5H365l-0.6-1.5h-2.7l-0.6,1.5h-1.5L362.4,76z M363.9,79.8l-0.9-2.1l-0.9,2.1
					H363.9z"/>
				<path style="fill:#808C93;" d="M367.5,76h1.4v5.2h3.2v1.3h-4.7V76z"/>
				<path style="fill:#808C93;" d="M373.3,76h1.4v6.5h-1.4V76z"/>
				<path style="fill:#808C93;" d="M376.1,81.4l3.6-4.1h-3.4V76h5.3v1.1l-3.6,4.1h3.6v1.2h-5.4V81.4z"/>
				<path style="fill:#808C93;" d="M385.1,76h1.3l2.8,6.5h-1.5l-0.6-1.5h-2.7l-0.6,1.5h-1.5L385.1,76z M386.6,79.8l-0.9-2.1
					l-0.9,2.1H386.6z"/>
				<path style="fill:#808C93;" d="M391.7,83.6l0.7-1.1c-1.5-0.3-2.5-1.6-2.5-3.2v0c0-1.8,1.4-3.3,3.4-3.3c1.2,0,2,0.4,2.6,1l-0.9,1
					c-0.5-0.5-1-0.7-1.7-0.7c-1.1,0-1.9,0.9-1.9,2v0c0,1.1,0.8,2,1.9,2c0.7,0,1.2-0.3,1.7-0.8l0.9,0.9c-0.6,0.7-1.3,1.1-2.4,1.1
					l-0.6,1.5L391.7,83.6z"/>
				<path style="fill:#808C93;" d="M399.2,76h1.3l2.8,6.5h-1.5l-0.6-1.5h-2.7l-0.6,1.5h-1.5L399.2,76z M398,75.4
					c0.2-0.8,0.5-1.3,1.1-1.3c0.6,0,1.1,0.4,1.4,0.4c0.3,0,0.4-0.2,0.5-0.5l0.7,0.2c-0.2,0.8-0.5,1.3-1.1,1.3
					c-0.6,0-1.1-0.4-1.4-0.4c-0.3,0-0.4,0.2-0.5,0.5L398,75.4z M400.7,79.8l-0.9-2.1l-0.9,2.1H400.7z"/>
				<path style="fill:#808C93;" d="M404,79.3L404,79.3c0-1.9,1.5-3.4,3.4-3.4c2,0,3.4,1.5,3.4,3.3v0c0,1.8-1.5,3.3-3.4,3.3
					C405.4,82.6,404,81.1,404,79.3z M409.4,79.3L409.4,79.3c0-1.1-0.8-2.1-2-2.1c-1.1,0-1.9,0.9-1.9,2v0c0,1.1,0.8,2,2,2
					C408.6,81.3,409.4,80.4,409.4,79.3z"/>
			</g>
			<g>
				<circle style="fill:#89BFD1;" cx="364" cy="106.6" r="4.2"/>
			</g>
			<g>
				<g>
					<g>
						<path style="fill:#808C93;" d="M376.8,118.5c0,2.8,0,5.6,0,8.3c0,0.2-0.1,0.4-0.1,0.5c-0.1,0.7-0.4,1.4-0.7,2
							c-0.4,0.7-0.9,1.2-1.5,1.7c-0.6,0.5-1.2,0.8-2,1c-0.3,0.1-0.6,0.1-0.9,0.2c-0.5,0-1,0-1.5,0c-0.3-0.1-0.6-0.1-0.8-0.2
							c-1.3-0.3-2.4-0.9-3.3-1.8c-1.9-1.9-3.7-3.7-5.6-5.6c-0.3-0.3-0.7-0.7-0.8-1.2c0-0.3,0-0.5,0-0.8c0,0,0-0.1,0-0.1
							c0.1-0.4,0.4-0.8,0.7-1c0.7-0.4,1.4-0.3,2-0.1c0.8,0.4,1.6,0.8,2.4,1.2c0.1,0,0.1,0.1,0.2,0.1c0-0.1,0-0.2,0-0.3
							c0-3.5,0-7,0-10.4c0-0.4,0.2-0.7,0.4-0.9c0.3-0.3,0.6-0.5,1-0.7c0.3,0,0.5,0,0.8,0c0,0,0,0,0,0c0.9,0.2,1.4,1,1.4,1.8
							c0,0.9,0,1.9,0,2.8c1.2-0.4,2-0.1,2.6,1c0.5-0.3,1-0.3,1.6-0.2c0.6,0.2,0.9,0.5,1.1,1.1c0.1,0,0.1,0,0.2-0.1
							c0.8-0.4,1.9-0.2,2.4,0.6C376.7,118,376.7,118.3,376.8,118.5z M366,118.1c0,1.9,0,3.7,0,5.6c0,0.5-0.3,0.7-0.8,0.5
							c-0.9-0.4-1.7-0.9-2.6-1.3c-0.3-0.1-0.6-0.3-0.9-0.4c-0.4-0.1-0.8,0-1,0.4c-0.2,0.3-0.1,0.7,0.2,1c1.9,1.9,3.8,3.8,5.7,5.7
							c0.6,0.6,1.3,1.1,2.1,1.4c1.1,0.4,2.2,0.6,3.4,0.3c1.7-0.4,2.9-1.5,3.5-3.2c0.3-0.7,0.3-1.5,0.3-2.3c0-2.1,0-4.3,0-6.4
							c0-0.2,0-0.4,0-0.7c0-0.4-0.5-0.8-0.9-0.8c-0.5,0-0.8,0.5-0.8,0.9c0,0.7,0,1.5,0,2.2c0,0.3-0.2,0.5-0.5,0.5
							c-0.3,0-0.5-0.2-0.5-0.6c0-1,0-2.1,0-3.1c0-0.2-0.1-0.4-0.3-0.6c-0.3-0.2-0.6-0.4-1-0.2c-0.3,0.2-0.5,0.5-0.5,0.9c0,1,0,2,0,3
							c0,0.3-0.2,0.5-0.5,0.5c-0.3,0-0.5-0.2-0.5-0.6c0-1.3,0-2.7,0-4c0-0.1,0-0.1,0-0.2c-0.2-0.5-0.5-0.7-1-0.6
							c-0.4,0-0.7,0.5-0.7,0.9c0,1.3,0,2.7,0,4c0,0.3-0.2,0.5-0.5,0.5c-0.3,0-0.4-0.1-0.4-0.5c0-2.6,0-5.2,0-7.8c0-0.3,0-0.5,0-0.8
							c0-0.5-0.4-0.8-0.9-0.8c-0.4,0-0.8,0.4-0.8,0.9C366,114.3,366,116.2,366,118.1z"/>
					</g>
				</g>
				<g>
					<path style="fill:#FFFFFF;" d="M366,118.1c0-1.9,0-3.7,0-5.6c0-0.4,0.4-0.9,0.8-0.9c0.5,0,0.9,0.3,0.9,0.8c0,0.3,0,0.5,0,0.8
						c0,2.6,0,5.2,0,7.8c0,0.3,0.1,0.5,0.4,0.5c0.3,0,0.5-0.2,0.5-0.5c0-1.3,0-2.7,0-4c0-0.4,0.3-0.8,0.7-0.9c0.5-0.1,0.8,0.1,1,0.6
						c0,0.1,0,0.1,0,0.2c0,1.3,0,2.7,0,4c0,0.4,0.2,0.6,0.5,0.6c0.3,0,0.5-0.2,0.5-0.5c0-1,0-2,0-3c0-0.4,0.2-0.7,0.5-0.9
						c0.4-0.2,0.7-0.1,1,0.2c0.2,0.1,0.3,0.3,0.3,0.6c0,1,0,2.1,0,3.1c0,0.4,0.2,0.6,0.5,0.6c0.3,0,0.5-0.2,0.5-0.5
						c0-0.7,0-1.5,0-2.2c0-0.4,0.3-0.9,0.8-0.9c0.4,0,0.9,0.4,0.9,0.8c0,0.2,0,0.4,0,0.7c0,2.1,0,4.3,0,6.4c0,0.8,0,1.6-0.3,2.3
						c-0.6,1.7-1.8,2.8-3.5,3.2c-1.2,0.3-2.3,0.1-3.4-0.3c-0.8-0.3-1.5-0.8-2.1-1.4c-1.9-1.9-3.8-3.8-5.7-5.7
						c-0.3-0.3-0.4-0.7-0.2-1c0.2-0.3,0.6-0.5,1-0.4c0.3,0.1,0.6,0.2,0.9,0.4c0.9,0.4,1.8,0.9,2.6,1.3c0.4,0.2,0.8,0,0.8-0.5
						C366,121.8,366,119.9,366,118.1z"/>
				</g>
			</g>
		</g>
	</g>
	<g>
		<rect x="677" y="102.7" style="fill:#FFFFFF;stroke:#959FA5;stroke-width:0.5;stroke-miterlimit:10;" width="8.2" height="8.2"/>
	</g>
	<g>
		<line style="fill:#FFFFFF;stroke:#959FA5;stroke-width:0.5;stroke-miterlimit:10;" x1="685.2" y1="105.1" x2="677" y2="105.1"/>
	</g>
	<g>
		<line style="fill:#FFFFFF;stroke:#959FA5;stroke-width:0.5;stroke-miterlimit:10;" x1="683.2" y1="104.1" x2="683.2" y2="102"/>
	</g>
	<g>
		<line style="fill:#FFFFFF;stroke:#959FA5;stroke-width:0.5;stroke-miterlimit:10;" x1="679.1" y1="104.1" x2="679.1" y2="102"/>
	</g>
</g>
</svg>
