<!-- Generator: Adobe Illustrator 21.1.0, SVG Export Plug-In  -->
<svg version="1.1"
	 xmlns="http://www.w3.org/2000/svg" xmlns:xlink="http://www.w3.org/1999/xlink" xmlns:a="http://ns.adobe.com/AdobeSVGViewerExtensions/3.0/"
	 x="0px" y="0px" width="286.3px" height="174.3px" viewBox="0 0 286.3 174.3" style="enable-background:new 0 0 286.3 174.3;"
	 xml:space="preserve">


<style type="text/css">
    @keyframes scaleLeft {
        100%{
            transform: scaleX(1);
			transform-origin: 75% 75%;
			opacity: 1;
        }
       0%{
            transform: scaleX(0);
			transform-origin: 75% 90%;
        }
    }
    @keyframes scaleTop {
        0%{		
			opacity: 0;
            transform: scaleY(0);
        }
        100%{
            transform: scaleY(1);
			opacity: 1;
        }
    }
    @keyframes scaleRight {
        0%{
            transform: scaleX(0);
    		transform-origin: 75% 75%;
        }
        100%{
            transform: scaleX(1);
			transform-origin: 75% 90%;
			opacity: 1;
        }
    }

	st0,.st1,.st2,.st3{
		opacity: 0;
	}
	.st0{
        fill:url(#SVGID_1_);
          animation: scaleRight 0.5s forwards;

    }
	.st1{
	fill:url(#SVGID_2_);
				transform-origin: bottom center;
		animation: scaleTop 0.5s 0.5s forwards;
	}
	.st2{
		fill:url(#SVGID_3_);
		animation: scaleTop 0.5s 1.5s forwards;

	}
	.st3{
		fill:url(#SVGID_4_);
		animation: scaleLeft 0.5s 1s forwards;
	}
	.st4{
	fill:#FFFFFF;
	}
	.st5{fill:url(#SVGID_5_);}
	.st6{fill:url(#SVGID_6_);}
	.st7{fill:url(#SVGID_7_);}
	.st8{fill:url(#SVGID_8_);}
</style>
<defs>
</defs>
<g>
	<g>
		<linearGradient id="SVGID_1_" gradientUnits="userSpaceOnUse" x1="222.091" y1="157.9683" x2="277.4163" y2="157.9683">
			<stop  offset="0" style="stop-color:#6382BC"/>
			<stop  offset="1" style="stop-color:#516D9E"/>
		</linearGradient>
		<polygon class="st0" points="222.1,149.1 277.4,149.1 277.4,166.8 222.1,166.8 		"/>
		<linearGradient id="SVGID_2_" gradientUnits="userSpaceOnUse" x1="277.4163" y1="166.8187" x2="277.4163" y2="8.8504">
			<stop  offset="0" style="stop-color:#6382BC"/>
			<stop  offset="0.3614" style="stop-color:#5B6BAC"/>
			<stop  offset="1" style="stop-color:#4B3989"/>
		</linearGradient>
		<polygon class="st1" points="268.6,166.8 268.6,8.9 286.3,8.9 286.3,166.8 		"/>
		<linearGradient id="SVGID_3_" gradientUnits="userSpaceOnUse" x1="128.2984" y1="49.8323" x2="128.2984" y2="8.8504">
			<stop  offset="0" style="stop-color:#89BFD1"/>
			<stop  offset="1" style="stop-color:#6698A7"/>
		</linearGradient>
		<polygon class="st2" points="119.4,49.8 119.4,8.9 137.1,8.9 137.1,49.8 		"/>
		<linearGradient id="SVGID_4_" gradientUnits="userSpaceOnUse" x1="119.448" y1="8.8504" x2="286.2667" y2="8.8504">
			<stop  offset="0" style="stop-color:#83BCD0"/>
			<stop  offset="0.4272" style="stop-color:#6A7EAE"/>
			<stop  offset="0.8109" style="stop-color:#574D93"/>
			<stop  offset="1" style="stop-color:#4F3A89"/>
		</linearGradient>
		<rect x="119.4" class="st3" width="166.8" height="17.7"/>
	</g>
	<g>
		<g>
			<path class="st4" d="M36.4,77C26,77,18.1,85.2,18.1,96c0,10.9,7.9,19.2,18.3,19.2c5.6,0,12.1-3.1,16.8-7.9l10.3,11.1
				c-7.2,7.6-18,12.5-28.1,12.5C15.1,130.9,0,116,0,96.2c0-19.5,15.5-34.1,36.2-34.1c10,0,20.5,4.4,27.3,11.6L53.2,85.9
				C48.8,80.5,42.3,77,36.4,77z"/>
		</g>
		<g>
			<path class="st4" d="M106.3,115.9c7.8,0,13.2-5.3,13.2-14.1V62.5h17.6v39.2c0,17.8-12,29.1-30.9,29.1
				c-19.1,0-31.3-11.3-31.3-29.1V62.5h17.6v39.2C92.5,110.5,98.3,115.9,106.3,115.9z"/>
		</g>
		<g>
			<path class="st4" d="M209.2,79.6c0,7-4.5,12.7-11.7,14.7c8.6,1.7,13.9,8.4,13.9,17.1c0,11.6-10.1,18.8-26,18.8h-33.4V62.5h32.1
				C199.5,62.5,209.2,69.2,209.2,79.6z M191.1,82.7c0-4-3-6.5-7.9-6.4h-13.5v13.1h13.5C188.1,89.4,191.1,86.9,191.1,82.7z
				 M193.2,109.1c0-4.2-3.9-6.9-10-6.8h-13.5v14.2h13.5C189.4,116.4,193.2,113.7,193.2,109.1z"/>
		</g>
		<g>
			<path class="st4" d="M239.8,70.4v59.7h-17.6V70.4H239.8z"/>
		</g>
		<g>
			<path class="st4" d="M239.8,44.7v17.7h-17.6V44.7H239.8z"/>
		</g>
	</g>
	<g>
		<path class="st4" d="M100.6,167.1c-1.4,0-2.6-0.2-3.7-0.7c-1.1-0.5-2.1-1.1-2.9-2c-0.8-0.8-1.4-1.8-1.9-2.9
			c-0.4-1.1-0.7-2.3-0.7-3.5c0-1.2,0.2-2.4,0.7-3.5c0.4-1.1,1.1-2.1,1.9-2.9s1.8-1.5,2.9-2c1.1-0.5,2.4-0.7,3.8-0.7
			c1.4,0,2.6,0.2,3.7,0.7c1.1,0.5,2.1,1.2,2.9,2c0.8,0.8,1.4,1.8,1.8,2.9c0.4,1.1,0.6,2.2,0.6,3.4c0,0.3,0,0.5,0,0.8
			c0,0.2,0,0.4-0.1,0.6H95.4c0.1,0.8,0.3,1.5,0.6,2.1c0.3,0.6,0.7,1.2,1.2,1.6c0.5,0.5,1,0.8,1.7,1.1c0.6,0.2,1.3,0.4,1.9,0.4
			c0.5,0,1-0.1,1.5-0.2c0.5-0.1,0.9-0.3,1.3-0.5c0.4-0.2,0.8-0.5,1.1-0.9c0.3-0.3,0.6-0.7,0.7-1.1l3.2,0.9c-0.6,1.3-1.6,2.4-3,3.3
			C104.1,166.7,102.5,167.1,100.6,167.1z M106,156.6c-0.1-0.7-0.3-1.4-0.6-2.1c-0.3-0.6-0.7-1.2-1.2-1.6c-0.5-0.4-1-0.8-1.7-1
			c-0.6-0.2-1.3-0.4-2-0.4c-0.7,0-1.4,0.1-2,0.4c-0.6,0.2-1.2,0.6-1.6,1c-0.5,0.4-0.9,1-1.1,1.6c-0.3,0.6-0.5,1.3-0.5,2.1H106z"/>
		<path class="st4" d="M129.2,166.8h-3.7v-9.9c0-1.7-0.3-2.9-0.8-3.6c-0.5-0.8-1.3-1.1-2.3-1.1c-0.5,0-1.1,0.1-1.6,0.3
			c-0.5,0.2-1,0.5-1.5,0.9c-0.5,0.4-0.9,0.8-1.3,1.3c-0.4,0.5-0.7,1.1-0.9,1.7v10.5h-3.7v-17.7h3.4v3.5c0.7-1.2,1.7-2.1,2.9-2.8
			c1.3-0.7,2.7-1,4.3-1c1.1,0,1.9,0.2,2.6,0.6c0.7,0.4,1.2,0.9,1.6,1.6c0.4,0.7,0.7,1.4,0.8,2.3c0.2,0.9,0.2,1.8,0.2,2.8V166.8z"/>
		<path class="st4" d="M142.2,167.1c-1.4,0-2.6-0.2-3.7-0.7c-1.1-0.5-2.1-1.1-2.9-2c-0.8-0.8-1.4-1.8-1.9-2.9
			c-0.4-1.1-0.7-2.3-0.7-3.5c0-1.2,0.2-2.4,0.7-3.5c0.4-1.1,1.1-2.1,1.9-2.9s1.8-1.5,2.9-2c1.1-0.5,2.4-0.7,3.8-0.7
			c1.4,0,2.6,0.2,3.7,0.7c1.1,0.5,2.1,1.2,2.9,2c0.8,0.8,1.4,1.8,1.8,2.9c0.4,1.1,0.6,2.2,0.6,3.4c0,0.3,0,0.5,0,0.8
			c0,0.2,0,0.4-0.1,0.6H137c0.1,0.8,0.3,1.5,0.6,2.1c0.3,0.6,0.7,1.2,1.2,1.6c0.5,0.5,1,0.8,1.7,1.1c0.6,0.2,1.3,0.4,1.9,0.4
			c0.5,0,1-0.1,1.5-0.2c0.5-0.1,0.9-0.3,1.3-0.5c0.4-0.2,0.8-0.5,1.1-0.9c0.3-0.3,0.6-0.7,0.7-1.1l3.2,0.9c-0.6,1.3-1.6,2.4-3,3.3
			C145.7,166.7,144.1,167.1,142.2,167.1z M147.6,156.6c-0.1-0.7-0.3-1.4-0.6-2.1c-0.3-0.6-0.7-1.2-1.2-1.6c-0.5-0.4-1-0.8-1.7-1
			c-0.6-0.2-1.3-0.4-2-0.4c-0.7,0-1.4,0.1-2,0.4c-0.6,0.2-1.2,0.6-1.6,1c-0.5,0.4-0.9,1-1.1,1.6c-0.3,0.6-0.5,1.3-0.5,2.1H147.6z"/>
		<path class="st4" d="M164.9,152.3c-1.4,0-2.7,0.4-3.8,1c-1.1,0.6-1.9,1.5-2.4,2.7v10.8H155v-17.7h3.4v4c0.6-1.2,1.4-2.2,2.4-2.9
			c1-0.7,2-1.1,3.2-1.2c0.2,0,0.4,0,0.6,0c0.1,0,0.3,0,0.4,0V152.3z"/>
		<path class="st4" d="M174.4,167c-1.2,0-2.3-0.2-3.3-0.7c-1-0.5-1.8-1.1-2.5-2c-0.7-0.8-1.3-1.8-1.7-2.9c-0.4-1.1-0.6-2.2-0.6-3.4
			c0-1.3,0.2-2.4,0.6-3.6s1-2.1,1.7-2.9c0.7-0.8,1.6-1.5,2.6-2c1-0.5,2.1-0.7,3.3-0.7c1.4,0,2.7,0.3,3.7,1c1.1,0.7,2,1.6,2.7,2.6
			v-3.3h3.3v17.2c0,1.3-0.2,2.4-0.7,3.4c-0.5,1-1.1,1.8-2,2.5c-0.8,0.7-1.8,1.2-3,1.6c-1.1,0.4-2.4,0.5-3.7,0.5c-2,0-3.6-0.3-4.9-1
			c-1.3-0.7-2.4-1.6-3.3-2.8l2.1-2c0.7,0.9,1.5,1.7,2.6,2.2c1.1,0.5,2.2,0.7,3.4,0.7c0.8,0,1.5-0.1,2.2-0.3c0.7-0.2,1.3-0.5,1.8-0.9
			c0.5-0.4,0.9-1,1.2-1.6c0.3-0.7,0.5-1.4,0.5-2.3v-2.7c-0.6,1.1-1.5,1.9-2.6,2.5C176.8,166.7,175.6,167,174.4,167z M175.6,164
			c0.6,0,1.1-0.1,1.6-0.3c0.5-0.2,1-0.4,1.4-0.8c0.4-0.3,0.8-0.7,1.1-1.1c0.3-0.4,0.5-0.9,0.7-1.3v-4.6c-0.2-0.6-0.5-1.1-0.9-1.5
			c-0.4-0.5-0.8-0.9-1.2-1.2c-0.5-0.3-1-0.6-1.5-0.8c-0.5-0.2-1-0.3-1.6-0.3c-0.8,0-1.5,0.2-2.2,0.5c-0.6,0.3-1.2,0.8-1.6,1.4
			c-0.5,0.6-0.8,1.2-1,1.9c-0.2,0.7-0.4,1.5-0.4,2.2c0,0.8,0.1,1.6,0.4,2.3c0.3,0.7,0.7,1.3,1.2,1.9c0.5,0.5,1.1,1,1.7,1.3
			C174.1,163.8,174.8,164,175.6,164z"/>
		<path class="st4" d="M189.3,146.2v-4.1h3.7v4.1H189.3z M189.3,166.8v-17.7h3.7v17.7H189.3z"/>
		<path class="st4" d="M202.9,167.1c-0.9,0-1.6-0.1-2.4-0.4c-0.7-0.3-1.4-0.7-1.9-1.2c-0.5-0.5-0.9-1.1-1.2-1.8
			c-0.3-0.7-0.5-1.4-0.5-2.2c0-0.8,0.2-1.6,0.5-2.3c0.4-0.7,0.9-1.3,1.5-1.8c0.7-0.5,1.5-0.9,2.4-1.1c0.9-0.3,1.9-0.4,3-0.4
			c0.8,0,1.7,0.1,2.5,0.2c0.8,0.1,1.5,0.3,2.2,0.6v-1.2c0-1.3-0.4-2.3-1.1-3.1c-0.7-0.7-1.8-1.1-3.2-1.1c-0.9,0-1.9,0.2-2.8,0.5
			c-0.9,0.3-1.9,0.9-2.8,1.5l-1.1-2.4c2.3-1.5,4.6-2.3,7.1-2.3c2.4,0,4.3,0.6,5.7,1.9c1.4,1.2,2,3,2,5.3v6.4c0,0.8,0.3,1.2,1,1.2
			v3.2c-0.4,0.1-0.7,0.1-0.9,0.1c-0.3,0-0.5,0-0.8,0c-0.7,0-1.3-0.2-1.7-0.5c-0.4-0.4-0.6-0.8-0.7-1.4l-0.1-1.1
			c-0.8,1-1.8,1.8-2.9,2.4C205.4,166.9,204.2,167.1,202.9,167.1z M203.9,164.4c0.9,0,1.8-0.2,2.5-0.5c0.8-0.3,1.4-0.8,1.9-1.4
			c0.5-0.4,0.7-0.8,0.7-1.3v-2.3c-0.6-0.2-1.3-0.4-2-0.6c-0.7-0.1-1.4-0.2-2.1-0.2c-1.3,0-2.4,0.3-3.3,0.9s-1.3,1.3-1.3,2.3
			c0,0.9,0.3,1.6,1,2.2C202,164.1,202.9,164.4,203.9,164.4z"/>
	</g>
</g>
</svg>
