<svg xmlns="http://www.w3.org/2000/svg" viewBox="0 0 286.27 174.32"><defs><style>.cls-1{fill:#fff;}</style></defs><title>Ativo 1</title><g id="Camada_2" data-name="Camada 2"><g id="Camada_1-2" data-name="Camada 1"><rect class="cls-1" x="222.09" y="149.12" width="55.33" height="17.7" transform="translate(499.51 315.94) rotate(180)"/><rect class="cls-1" x="198.43" y="78.98" width="157.97" height="17.7" transform="translate(365.25 -189.58) rotate(90)"/><rect class="cls-1" x="107.81" y="20.49" width="40.98" height="17.7" transform="translate(157.64 -98.96) rotate(90)"/><rect class="cls-1" x="119.45" width="166.82" height="17.7"/><path class="cls-1" d="M36.45,77C26,77,18.13,85.19,18.13,96S26,115.18,36.45,115.18c5.59,0,12.05-3.09,16.78-7.91l10.32,11.09c-7.23,7.62-18,12.53-28.06,12.53C15.14,130.89,0,116,0,96.18,0,76.71,15.52,62.05,36.16,62.05A38.78,38.78,0,0,1,63.44,73.62L53.22,85.87C48.79,80.47,42.33,77,36.45,77Z"/><path class="cls-1" d="M106.29,115.85c7.81,0,13.21-5.3,13.21-14.08V62.53h17.64v39.24c0,17.84-12,29.12-30.95,29.12s-31.34-11.28-31.34-29.12V62.53H92.5v39.24C92.5,110.45,98.29,115.85,106.29,115.85Z"/><path class="cls-1" d="M209.25,79.6c0,7-4.53,12.73-11.67,14.66,8.58,1.74,13.88,8.39,13.88,17.07,0,11.57-10.12,18.8-26,18.8H152.07V62.53h32.11C199.51,62.53,209.25,69.19,209.25,79.6Zm-18.13,3.09c0-4-3-6.46-7.91-6.36h-13.5V89.43h13.5C188.13,89.43,191.12,86.93,191.12,82.68Zm2.12,26.42c0-4.24-3.86-6.94-10-6.85h-13.5v14.17h13.5C189.38,116.43,193.24,113.73,193.24,109.1Z"/><path class="cls-1" d="M239.82,70.42v59.7H222.18V70.42Z"/><path class="cls-1" d="M239.82,44.65v17.7H222.18V44.65Z"/><path class="cls-1" d="M100.63,167.13a9.39,9.39,0,0,1-3.75-.73,8.71,8.71,0,0,1-2.89-2,8.91,8.91,0,0,1-1.86-2.9,9.41,9.41,0,0,1-.66-3.51,9.55,9.55,0,0,1,.66-3.53A9.07,9.07,0,0,1,94,151.54a8.6,8.6,0,0,1,2.89-2,9.48,9.48,0,0,1,3.78-.73,9.1,9.1,0,0,1,3.73.74,8.93,8.93,0,0,1,2.85,2,8.47,8.47,0,0,1,1.81,2.87,9.55,9.55,0,0,1,.62,3.43q0,.41,0,.76c0,.24,0,.43-.07.59H95.43a6.06,6.06,0,0,0,.56,2.13A5.58,5.58,0,0,0,97.16,163a5.19,5.19,0,0,0,3.6,1.43,5.9,5.9,0,0,0,1.47-.19,5.16,5.16,0,0,0,1.33-.54,4.71,4.71,0,0,0,1.08-.86,4,4,0,0,0,.74-1.11l3.17.91a7.36,7.36,0,0,1-3,3.26A9.37,9.37,0,0,1,100.63,167.13Zm5.37-10.5a5.94,5.94,0,0,0-.56-2.06,5.31,5.31,0,0,0-1.17-1.6,5.21,5.21,0,0,0-1.65-1,5.41,5.41,0,0,0-2-.37A5.28,5.28,0,0,0,97,153a5.07,5.07,0,0,0-1.15,1.6,6.18,6.18,0,0,0-.54,2.06Z"/><path class="cls-1" d="M129.23,166.79h-3.71V156.9a6.45,6.45,0,0,0-.79-3.63,2.68,2.68,0,0,0-2.35-1.13,4.59,4.59,0,0,0-1.62.3,5.67,5.67,0,0,0-1.52.86,6.71,6.71,0,0,0-1.27,1.32,6,6,0,0,0-.86,1.67v10.5h-3.71V149.13h3.38v3.55a7.18,7.18,0,0,1,2.94-2.82,8.87,8.87,0,0,1,4.25-1,5.24,5.24,0,0,1,2.6.57,4.29,4.29,0,0,1,1.6,1.57,6.89,6.89,0,0,1,.83,2.3,15.41,15.41,0,0,1,.24,2.75Z"/><path class="cls-1" d="M142.23,167.13a9.39,9.39,0,0,1-3.75-.73,8.71,8.71,0,0,1-2.89-2,8.91,8.91,0,0,1-1.86-2.9,9.41,9.41,0,0,1-.66-3.51,9.55,9.55,0,0,1,.66-3.53,9.07,9.07,0,0,1,1.86-2.94,8.6,8.6,0,0,1,2.89-2,9.48,9.48,0,0,1,3.78-.73,9.1,9.1,0,0,1,3.73.74,8.93,8.93,0,0,1,2.85,2,8.47,8.47,0,0,1,1.81,2.87,9.55,9.55,0,0,1,.62,3.43q0,.41,0,.76c0,.24,0,.43-.07.59H137a6.06,6.06,0,0,0,.56,2.13,5.58,5.58,0,0,0,1.18,1.64,5.19,5.19,0,0,0,3.6,1.43,5.9,5.9,0,0,0,1.47-.19,5.16,5.16,0,0,0,1.33-.54,4.71,4.71,0,0,0,1.08-.86,4,4,0,0,0,.74-1.11l3.17.91a7.36,7.36,0,0,1-3,3.26A9.37,9.37,0,0,1,142.23,167.13Zm5.37-10.5a5.94,5.94,0,0,0-.56-2.06,5.31,5.31,0,0,0-1.17-1.6,5.21,5.21,0,0,0-1.65-1,5.41,5.41,0,0,0-2-.37,5.28,5.28,0,0,0-3.61,1.4,5.07,5.07,0,0,0-1.15,1.6,6.18,6.18,0,0,0-.54,2.06Z"/><path class="cls-1" d="M164.92,152.34a8.31,8.31,0,0,0-3.83,1,5.25,5.25,0,0,0-2.38,2.65v10.81H155V149.13h3.44v4a8.08,8.08,0,0,1,2.38-2.92A5.78,5.78,0,0,1,164,149h.56a2,2,0,0,1,.39,0Z"/><path class="cls-1" d="M174.41,167a7.35,7.35,0,0,1-3.28-.73,7.82,7.82,0,0,1-2.55-2,9.28,9.28,0,0,1-1.66-2.87,9.89,9.89,0,0,1-.59-3.41,10.34,10.34,0,0,1,.61-3.56,9,9,0,0,1,1.69-2.9,8.07,8.07,0,0,1,2.58-2,7.55,7.55,0,0,1,3.33-.73,6.84,6.84,0,0,1,3.73,1,8.58,8.58,0,0,1,2.65,2.63v-3.34h3.28v17.15a7.83,7.83,0,0,1-.71,3.41,7.19,7.19,0,0,1-2,2.52,8.91,8.91,0,0,1-3,1.57,12.36,12.36,0,0,1-3.71.54,10.64,10.64,0,0,1-4.88-1,9.23,9.23,0,0,1-3.26-2.79l2.09-2a6.54,6.54,0,0,0,2.62,2.16,8.06,8.06,0,0,0,3.43.74,7.67,7.67,0,0,0,2.18-.3,5.05,5.05,0,0,0,1.81-.95,4.57,4.57,0,0,0,1.23-1.62,5.48,5.48,0,0,0,.46-2.33v-2.7a6.47,6.47,0,0,1-2.6,2.5A7.32,7.32,0,0,1,174.41,167Zm1.22-3a4.64,4.64,0,0,0,1.62-.29,5.69,5.69,0,0,0,1.43-.78,5.58,5.58,0,0,0,1.13-1.11,4.05,4.05,0,0,0,.68-1.33v-4.63a6.25,6.25,0,0,0-2.11-2.74,6,6,0,0,0-1.47-.79,4.6,4.6,0,0,0-3.73.24,5.25,5.25,0,0,0-1.64,1.38,6.58,6.58,0,0,0-1,1.94,6.8,6.8,0,0,0-.37,2.23,6.12,6.12,0,0,0,.42,2.28,5.84,5.84,0,0,0,1.17,1.86,5.71,5.71,0,0,0,1.74,1.27A5,5,0,0,0,175.62,164Z"/><path class="cls-1" d="M189.34,146.23v-4.09h3.71v4.09Zm0,20.57V149.13h3.71v17.66Z"/><path class="cls-1" d="M202.88,167.13a6.57,6.57,0,0,1-2.38-.42,5.75,5.75,0,0,1-1.89-1.16,5.43,5.43,0,0,1-1.25-1.76,5.28,5.28,0,0,1-.46-2.19,4.72,4.72,0,0,1,.54-2.26,5.27,5.27,0,0,1,1.54-1.76,7.46,7.46,0,0,1,2.36-1.15,10.61,10.61,0,0,1,3-.41,13.87,13.87,0,0,1,2.47.22,12.47,12.47,0,0,1,2.2.59v-1.22a4.09,4.09,0,0,0-1.11-3.06,4.38,4.38,0,0,0-3.21-1.1,7.74,7.74,0,0,0-2.79.52,14.13,14.13,0,0,0-2.82,1.5l-1.15-2.36a12.52,12.52,0,0,1,7.09-2.3,8.09,8.09,0,0,1,5.67,1.86,6.88,6.88,0,0,1,2,5.34v6.38q0,1.18,1,1.22v3.17q-.54.1-.93.13t-.76,0a2.39,2.39,0,0,1-1.67-.54,2.31,2.31,0,0,1-.73-1.38l-.1-1.11a7.88,7.88,0,0,1-2.92,2.38A8.58,8.58,0,0,1,202.88,167.13Zm1-2.74a6.67,6.67,0,0,0,2.55-.49,4.39,4.39,0,0,0,1.87-1.37,1.71,1.71,0,0,0,.71-1.28v-2.33a11.25,11.25,0,0,0-2-.57,11.1,11.1,0,0,0-2.08-.2,5.68,5.68,0,0,0-3.26.86,2.64,2.64,0,0,0-1.27,2.28,2.88,2.88,0,0,0,1,2.21A3.56,3.56,0,0,0,203.89,164.39Z"/></g></g></svg>